<svg width="20" height="20" viewBox="0 0 20 20" fill="none" xmlns="http://www.w3.org/2000/svg">
<g clip-path="url(#clip0)">
<rect width="20" height="20" fill="#333333"/>
<path d="M10.2139 4.86206C7.46994 4.86206 5.23834 7.09274 5.23712 9.83475C5.23682 10.7744 5.49988 11.6895 5.99777 12.4812L6.11603 12.6694L5.6134 14.5045L7.49619 14.0108L7.67792 14.1185C8.44162 14.5717 9.31717 14.8114 10.2098 14.8117H10.2118C12.9536 14.8117 15.1852 12.5809 15.1865 9.83871C15.1869 8.50983 14.67 7.26044 13.7308 6.3205C12.7916 5.38055 11.5425 4.86252 10.2139 4.86206V4.86206ZM13.14 11.9728C13.0153 12.3219 12.4179 12.6407 12.1306 12.6837C11.8729 12.7222 11.5469 12.7382 11.1887 12.6245C10.9714 12.5555 10.6929 12.4635 10.336 12.3096C8.83591 11.662 7.85614 10.152 7.78137 10.0522C7.7066 9.95239 7.17072 9.24149 7.17072 8.50555C7.17072 7.76978 7.55707 7.40799 7.69409 7.25845C7.83127 7.10876 7.99332 7.07138 8.09296 7.07138C8.1926 7.07138 8.29239 7.0723 8.37952 7.07657C8.47137 7.08115 8.59467 7.04163 8.71597 7.33322C8.84064 7.6326 9.13971 8.36838 9.17709 8.44315C9.21448 8.51807 9.23935 8.60535 9.18961 8.70514C9.13971 8.80493 8.90442 9.10553 8.81577 9.21646C8.7497 9.29886 8.66287 9.37195 8.75015 9.52164C8.83728 9.67117 9.13757 10.1608 9.58206 10.5573C10.1534 11.0666 10.6352 11.2244 10.7848 11.2993C10.9341 11.3741 11.0214 11.3615 11.1087 11.2619C11.1958 11.1621 11.4825 10.8253 11.5822 10.6757C11.6818 10.526 11.7816 10.551 11.9186 10.6009C12.0558 10.6506 12.791 11.0124 12.9405 11.0872C13.0901 11.1621 13.1897 11.1995 13.2271 11.2619C13.2646 11.3243 13.2646 11.6235 13.14 11.9728V11.9728Z" fill="white"/>
<path d="M18.5576 0H1.44241C0.645752 0 0 0.645752 0 1.44241V18.5576C0 19.3542 0.645752 20 1.44241 20H18.5576C19.3542 20 20 19.3542 20 18.5576V1.44241C20 0.645752 19.3542 0 18.5576 0V0ZM10.2119 15.8223C10.2118 15.8223 10.2121 15.8223 10.2119 15.8223H10.2095C9.20776 15.8218 8.22342 15.5707 7.34924 15.094L4.17648 15.9261L5.02563 12.8255C4.5018 11.9182 4.22623 10.8888 4.22668 9.83429C4.22806 6.53534 6.91299 3.85147 10.2119 3.85147C11.8129 3.85208 13.3157 4.47525 14.4456 5.60608C15.5757 6.73706 16.1977 8.24036 16.1971 9.83902C16.1957 13.1381 13.5104 15.8223 10.2119 15.8223V15.8223Z" fill="white"/>
</g>
<defs>
<clipPath id="clip0">
<rect width="20" height="20" fill="white"/>
</clipPath>
</defs>
</svg>
